<?xml version="1.0" encoding="UTF-8"?>
<svg xmlns="http://www.w3.org/2000/svg" width="67" height="49" viewBox="0 0 67 49" fill="none">
  <g clip-path="url(#clip0_10015_7366)">
    <path d="M54.5527 24.2036V38.1593C54.5527 39.3716 54.258 40.5698 53.6686 41.6271C53.0791 42.6843 52.223 43.5724 51.1845 44.1927C45.8234 47.3362 39.7184 48.9996 33.5012 48.9996C27.284 48.9996 21.179 47.3362 15.8179 44.1927C14.7794 43.5724 13.9233 42.6843 13.3338 41.6271C12.7444 40.5698 12.4356 39.3716 12.4497 38.1593V24.2036L29.6698 31.5198C30.8768 32.0273 32.182 32.4361 33.5012 32.4361C34.8204 32.4361 36.1256 32.0273 37.3326 31.5198L54.5527 24.2036Z" fill="black"></path>
    <path d="M66.2983 14.0967C65.8352 13.4059 65.1896 12.8562 64.4317 12.5319L36.2367 0.54977C35.3666 0.183257 34.4403 0 33.5 0C32.5597 0 31.6334 0.183257 30.7633 0.54977L2.56829 12.5319C1.81043 12.8562 1.15082 13.3918 0.701718 14.0967C0.252618 14.8015 0 15.605 0 16.4367C0 17.2684 0.238584 18.086 0.701718 18.7768C1.16485 19.4675 1.81043 20.0173 2.56829 20.3415L30.7633 32.3237C31.6334 32.6902 32.5597 32.8734 33.5 32.8734C34.4403 32.8734 35.3666 32.6902 36.2367 32.3237L64.4317 20.3415C65.1896 20.0173 65.8492 19.4816 66.2983 18.7768C66.7474 18.0719 67 17.2684 67 16.4367C67 15.605 66.7614 14.7874 66.2983 14.0967Z" fill="black"></path>
    <path d="M33.4723 30.4625C33.2899 30.4625 29.8514 29.3489 29.683 29.2925L3.00373 18.3253C2.28798 18.0292 1.93712 17.2116 2.21781 16.4927C2.51253 15.7738 3.32652 15.4213 4.04228 15.7033L33.4583 27.5163L62.4953 15.3791C63.2111 15.083 64.0391 15.4213 64.3338 16.1403C64.6286 16.8592 64.2917 17.6909 63.576 17.9869L34.0056 30.3497C33.8372 30.4202 33.6548 30.4625 33.4723 30.4625Z" fill="white"></path>
    <path d="M57.2054 36.4683C57.2054 37.018 57.851 37.3 58.244 36.9334L59.7036 35.6225L61.1631 36.9334C61.5421 37.2859 62.2017 37.018 62.2017 36.4683V16.8457L57.1914 19.0589V36.4542L57.2054 36.4683Z" fill="#F5A32A"></path>
    <path d="M32.4049 29.0674C36.924 29.0674 36.924 22.019 32.4049 22.019C27.8859 22.019 27.8859 29.0674 32.4049 29.0674Z" fill="white"></path>
    <path d="M40.039 24.1753C37.7234 22.0044 33.6253 22.4555 30.7343 22.4837C29.5694 22.4837 24.5732 23.4141 24.924 22.5683C24.7416 23.0053 22.7066 22.5965 22.4961 23.0194L30.6641 26.5435C31.5342 26.9101 32.4605 27.0933 33.4008 27.0933C34.3411 27.0933 35.2674 26.9101 36.1375 26.5435L43.1406 23.4987C42.9582 23.3436 40.2215 24.3445 40.039 24.1753Z" fill="black"></path>
    <path d="M32.8243 24.1192C35.3744 24.1192 37.4416 22.9327 37.4416 21.469C37.4416 20.0054 35.3744 18.8188 32.8243 18.8188C30.2743 18.8188 28.207 20.0054 28.207 21.469C28.207 22.9327 30.2743 24.1192 32.8243 24.1192Z" fill="black"></path>
    <path d="M47.9277 24.4995L36.9668 29.1514C35.7599 29.6589 34.4547 29.9267 33.1355 29.9267C31.8162 29.9267 30.511 29.6589 29.3041 29.1514L23.8728 26.9382C23.6482 29.673 24.5324 33.3099 21.0098 33.3099C19.2695 33.3099 17.9503 32.6615 17.01 31.7029C16.9819 31.8157 16.9538 31.9285 16.9258 32.0412C19.7186 32.8729 21.2063 36.5099 20.4765 39.1459C20.3361 39.6534 20.1396 40.0904 19.9011 40.4992C24.0833 42.219 28.5743 43.1071 33.1355 43.1071C38.1598 43.1071 43.1139 42.0076 47.661 39.9213C47.5487 39.4984 47.4786 39.0614 47.4645 38.5821C47.24 33.8738 47.7733 29.1937 47.9277 24.4995Z" fill="black"></path>
  </g>
  <defs>
    <clipPath id="clip0_10015_7366">
      <rect width="67" height="49" fill="white"></rect>
    </clipPath>
  </defs>
</svg>
